<svg width="29" height="21" viewBox="0 0 29 21" fill="none" xmlns="http://www.w3.org/2000/svg">
<path d="M28 13.6667C28 14.2266 27.6839 14.7635 27.1213 15.1594C26.5587 15.5554 25.7956 15.7778 25 15.7778H7L1 20V3.11111C1 2.55121 1.31607 2.01424 1.87868 1.61833C2.44129 1.22242 3.20435 1 4 1H25C25.7956 1 26.5587 1.22242 27.1213 1.61833C27.6839 2.01424 28 2.55121 28 3.11111V13.6667Z" fill="#4D97A4" stroke="#4D97A4" stroke-width="2" stroke-linecap="round" stroke-linejoin="round"/>
<path d="M10.2482 7.663H9.05291C9.01882 7.46697 8.95597 7.29332 8.86435 7.14205C8.77273 6.98864 8.65874 6.85866 8.52237 6.75213C8.38601 6.6456 8.23047 6.5657 8.05575 6.51243C7.88317 6.45703 7.69673 6.42933 7.49645 6.42933C7.14063 6.42933 6.82528 6.51882 6.55043 6.6978C6.27557 6.87464 6.06037 7.13459 5.90483 7.47763C5.74929 7.81854 5.67152 8.23509 5.67152 8.72727C5.67152 9.22798 5.74929 9.64986 5.90483 9.9929C6.0625 10.3338 6.2777 10.5916 6.55043 10.7663C6.82528 10.9389 7.13956 11.0252 7.49325 11.0252C7.68928 11.0252 7.87251 10.9996 8.04297 10.9485C8.21555 10.8952 8.37003 10.8175 8.50639 10.7152C8.64489 10.6129 8.76101 10.4872 8.85476 10.3381C8.95064 10.1889 9.01669 10.0185 9.05291 9.8267L10.2482 9.8331C10.2035 10.1442 10.1065 10.4361 9.95739 10.7088C9.81037 10.9815 9.61754 11.2223 9.37891 11.4311C9.14027 11.6378 8.86115 11.7997 8.54155 11.9169C8.22195 12.032 7.86719 12.0895 7.47727 12.0895C6.90199 12.0895 6.38849 11.9563 5.93679 11.69C5.48509 11.4237 5.12926 11.0391 4.86932 10.5362C4.60938 10.0334 4.4794 9.4304 4.4794 8.72727C4.4794 8.02202 4.61044 7.41903 4.87251 6.91832C5.13459 6.41548 5.49148 6.03089 5.94318 5.76456C6.39489 5.49822 6.90625 5.36506 7.47727 5.36506C7.84162 5.36506 8.1804 5.41619 8.49361 5.51847C8.80682 5.62074 9.08594 5.77095 9.33097 5.96911C9.57599 6.16513 9.77734 6.40589 9.93501 6.69141C10.0948 6.97479 10.1992 7.29865 10.2482 7.663ZM12.4399 9.12358V12H11.2829V5.45455H12.4143V7.92507H12.4719C12.5869 7.64808 12.7648 7.42969 13.0056 7.26989C13.2485 7.10795 13.5574 7.02699 13.9324 7.02699C14.2733 7.02699 14.5706 7.09837 14.8241 7.24112C15.0777 7.38388 15.2737 7.59268 15.4122 7.86754C15.5528 8.1424 15.6231 8.47798 15.6231 8.87429V12H14.4662V9.05327C14.4662 8.72301 14.3809 8.46626 14.2105 8.28303C14.0422 8.09766 13.8057 8.00497 13.501 8.00497C13.2964 8.00497 13.1132 8.04972 12.9513 8.1392C12.7915 8.22656 12.6657 8.35334 12.5741 8.51953C12.4846 8.68572 12.4399 8.88707 12.4399 9.12358ZM18.2151 12.0991C17.904 12.0991 17.6238 12.0437 17.3746 11.9329C17.1274 11.82 16.9314 11.6538 16.7865 11.4343C16.6437 11.2148 16.5724 10.9442 16.5724 10.6225C16.5724 10.3455 16.6235 10.1165 16.7258 9.93537C16.828 9.75426 16.9676 9.60938 17.1444 9.50071C17.3213 9.39205 17.5205 9.31001 17.7421 9.25462C17.9658 9.19709 18.197 9.15554 18.4356 9.12997C18.7233 9.10014 18.9566 9.07351 19.1356 9.05007C19.3145 9.0245 19.4445 8.98615 19.5255 8.93501C19.6086 8.88175 19.6501 8.79972 19.6501 8.68892V8.66974C19.6501 8.42898 19.5787 8.24254 19.436 8.11044C19.2932 7.97834 19.0876 7.91229 18.8192 7.91229C18.5358 7.91229 18.311 7.97408 18.1448 8.09766C17.9807 8.22124 17.8699 8.36719 17.8124 8.53551L16.7322 8.3821C16.8174 8.08381 16.958 7.83452 17.154 7.63423C17.3501 7.43182 17.5898 7.28054 17.8731 7.1804C18.1565 7.07812 18.4697 7.02699 18.8128 7.02699C19.0493 7.02699 19.2847 7.05469 19.5191 7.11009C19.7535 7.16548 19.9676 7.2571 20.1615 7.38494C20.3554 7.51065 20.5109 7.68217 20.6281 7.8995C20.7474 8.11683 20.8071 8.38849 20.8071 8.71449V12H19.6949V11.3256H19.6565C19.5862 11.462 19.4871 11.5898 19.3593 11.7092C19.2336 11.8263 19.0748 11.9212 18.8831 11.9936C18.6934 12.0639 18.4708 12.0991 18.2151 12.0991ZM18.5155 11.2489C18.7478 11.2489 18.9491 11.2031 19.1196 11.1115C19.29 11.0178 19.4211 10.8942 19.5127 10.7408C19.6064 10.5874 19.6533 10.4201 19.6533 10.239V9.66051C19.6171 9.69034 19.5553 9.71804 19.468 9.74361C19.3827 9.76918 19.2868 9.79155 19.1803 9.81072C19.0738 9.8299 18.9683 9.84695 18.8639 9.86186C18.7595 9.87678 18.6689 9.88956 18.5922 9.90021C18.4197 9.92365 18.2652 9.962 18.1288 10.0153C17.9925 10.0685 17.8849 10.1431 17.806 10.239C17.7272 10.3327 17.6878 10.4542 17.6878 10.6033C17.6878 10.8164 17.7655 10.9773 17.9211 11.0859C18.0766 11.1946 18.2748 11.2489 18.5155 11.2489ZM24.4218 7.09091V7.9858H21.5997V7.09091H24.4218ZM22.2964 5.91477H23.4534V10.5234C23.4534 10.679 23.4768 10.7983 23.5237 10.8814C23.5727 10.9624 23.6366 11.0178 23.7155 11.0476C23.7943 11.0774 23.8817 11.0923 23.9775 11.0923C24.05 11.0923 24.116 11.087 24.1757 11.0763C24.2375 11.0657 24.2844 11.0561 24.3163 11.0476L24.5113 11.9521C24.4495 11.9734 24.3611 11.9968 24.246 12.0224C24.1331 12.0479 23.9946 12.0629 23.8305 12.0671C23.5407 12.0756 23.2797 12.032 23.0475 11.9361C22.8153 11.8381 22.6309 11.6868 22.4946 11.4822C22.3604 11.2777 22.2943 11.022 22.2964 10.7152V5.91477Z" fill="white"/>
</svg>
