<svg width="17" height="25" viewBox="0 0 17 25" fill="none" xmlns="http://www.w3.org/2000/svg">
<path d="M8.49659 1.04247C7.70094 1.04247 6.93788 1.35854 6.37527 1.92114C5.81266 2.48375 5.49659 3.24682 5.49659 4.04247V12.0425C5.49659 12.8381 5.81266 13.6012 6.37527 14.1638C6.93788 14.7264 7.70094 15.0425 8.49659 15.0425C9.29224 15.0425 10.0553 14.7264 10.6179 14.1638C11.1805 13.6012 11.4966 12.8381 11.4966 12.0425V4.04247C11.4966 3.24682 11.1805 2.48375 10.6179 1.92114C10.0553 1.35854 9.29224 1.04247 8.49659 1.04247V1.04247Z" stroke="black" stroke-width="2" stroke-linecap="round" stroke-linejoin="round"/>
<path d="M15.4966 10.0425V12.0425C15.4966 13.899 14.7591 15.6795 13.4463 16.9922C12.1336 18.305 10.3531 19.0425 8.49659 19.0425C6.64007 19.0425 4.8596 18.305 3.54684 16.9922C2.23409 15.6795 1.49659 13.899 1.49659 12.0425V10.0425" stroke="black" stroke-width="2" stroke-linecap="round" stroke-linejoin="round"/>
<path d="M8.49659 19.0425V23.0425" stroke="black" stroke-width="2" stroke-linecap="round" stroke-linejoin="round"/>
<path d="M4.49659 23.0425H12.4966" stroke="black" stroke-width="2" stroke-linecap="round" stroke-linejoin="round"/>
</svg>
